<svg xmlns="http://www.w3.org/2000/svg" xmlns:xlink="http://www.w3.org/1999/xlink" version="1.1" width="63px" height="74px" viewBox="-0.5 -0.5 63 74"><defs/><g><path d="M 0 24.5 L 0 10 Q 0 0 10 0 L 50 0 Q 60 0 60 10 L 60 39 Q 60 49 60 59 L 60 70 L 50.81 57.14 Q 45 49 35 49 L 10 49 Q 0 49 0 39 Z" fill="#000000" stroke="#000000" stroke-miterlimit="10" transform="translate(2,3)" opacity="0.25"/><path d="M 0 24.5 L 0 10 Q 0 0 10 0 L 50 0 Q 60 0 60 10 L 60 39 Q 60 49 60 59 L 60 70 L 50.81 57.14 Q 45 49 35 49 L 10 49 Q 0 49 0 39 Z" fill="#3399ff" stroke="#ccffff" stroke-miterlimit="10" pointer-events="all"/></g></svg>