<svg xmlns="http://www.w3.org/2000/svg" viewBox="0 0 297.89 50.5"><defs><style>.cls-1{fill:#3169b2;}.cls-2{fill:#2475bc;}.cls-3{fill:#05a0b6;}.cls-4{fill:#010101;}</style></defs><title>Certain</title><g id="Layer_2" data-name="Layer 2"><g id="Layer_1-2" data-name="Layer 1"><path class="cls-1" d="M30.09,11a.64.64,0,0,0-.28-.06.62.62,0,0,1-.27,0h-.12l-.12-.05a2.68,2.68,0,0,1-.39,0,3.88,3.88,0,0,1-.45-.08l-.49,0a4,4,0,0,1-.48-.08,2.68,2.68,0,0,1-.49,0l-.48,0a3.83,3.83,0,0,1-.91-.09l-.48,0-.48,0H22.78l-.1,0-.09,0h-.66a37.49,37.49,0,0,0-4.44.29,34.61,34.61,0,0,0-4.07.76,26.4,26.4,0,0,0-3.77,1.21A23.25,23.25,0,0,0,6.3,14.35a17.85,17.85,0,0,0-2.74,2,11.15,11.15,0,0,0-1.95,2.27,9.8,9.8,0,0,0-1.2,2.48A8.76,8.76,0,0,0,0,23.8a9.77,9.77,0,0,0,.31,2.47,9,9,0,0,0,.92,2.2,10.19,10.19,0,0,0,1.52,1.91,12.2,12.2,0,0,0,2.12,1.69A15.87,15.87,0,0,0,7.5,33.42a24.5,24.5,0,0,0,3,1c1.05.21,2.16.36,3.35.48a36.54,36.54,0,0,0,3.66.16h1l.12,0,.12,0h1.09l.05,0h.85l.12,0,.12,0h.79l.21,0a.66.66,0,0,1,.21,0,.46.46,0,0,1,.21,0h1.06a.66.66,0,0,0,.21,0,.66.66,0,0,1,.21,0,.25.25,0,0,1,.15,0h.64a.68.68,0,0,1,.21-.06h.75l.52,0,.51-.08a1,1,0,0,0,.24,0,1,1,0,0,1,.24,0l.52-.13.45-.14,1.18-6.36c-.41.14-.8.26-1.18.37s-.73.2-1,.27a8.37,8.37,0,0,1-1,.24c-.3.06-.57.12-.81.19l-.85.14-.84.14-.79.1a4.37,4.37,0,0,1-.72.06,1.65,1.65,0,0,1-.34.08l-.27,0H19.54c-.73,0-1.4,0-2-.06a11.21,11.21,0,0,1-1.78-.28,9.43,9.43,0,0,1-1.48-.41A7.78,7.78,0,0,1,13,28a6.49,6.49,0,0,1-1.06-.79,3.61,3.61,0,0,1-.76-.94,4.49,4.49,0,0,1-.4-1.05A4.93,4.93,0,0,1,10.57,24a5,5,0,0,1,.21-1.44,5.77,5.77,0,0,1,.62-1.4,11.51,11.51,0,0,1,1.12-1.24,7.91,7.91,0,0,1,1.53-1.14,12.83,12.83,0,0,1,1.81-.93A13.39,13.39,0,0,1,18,17.17a17.89,17.89,0,0,1,2.27-.41,24.35,24.35,0,0,1,2.5-.15h1.63l.06,0h1.21l0,.05h.21l.37.08c.12,0,.26,0,.42.07l.48.08a4.13,4.13,0,0,1,.49.07,1.13,1.13,0,0,0,.24.08,1,1,0,0,0,.24,0,1.09,1.09,0,0,0,.24.07l.3.08a1,1,0,0,1,.25,0,1.13,1.13,0,0,1,.24.08l.48.08a4.44,4.44,0,0,1,.49.07l1.22-6.32-.56-.09Z"/><path class="cls-2" d="M26.19,11.09l0,.1h0Z"/><path class="cls-1" d="M65.05,20.83v-.52a9,9,0,0,0-.25-2.11,7.36,7.36,0,0,0-.74-1.89,8.88,8.88,0,0,0-1.21-1.71,9,9,0,0,0-1.76-1.49A10.39,10.39,0,0,0,59,11.89,16.36,16.36,0,0,0,56.49,11a18.54,18.54,0,0,0-2.87-.53,28.73,28.73,0,0,0-7,.12,27.09,27.09,0,0,0-3.44.76A18.65,18.65,0,0,0,40,12.59a21.29,21.29,0,0,0-2.87,1.68,20,20,0,0,0-2.34,2.07,11.07,11.07,0,0,0-1.69,2.22,10.15,10.15,0,0,0-1,2.43,10,10,0,0,0-.32,2.64,10.13,10.13,0,0,0,.31,2.5A10.51,10.51,0,0,0,33,28.36a10.57,10.57,0,0,0,1.46,2A10.1,10.1,0,0,0,36.53,32,13.68,13.68,0,0,0,39,33.38a20.27,20.27,0,0,0,2.94,1c1,.2,2.09.36,3.26.48A37,37,0,0,0,49,35q.66,0,1.32,0l1.4-.09,1.42-.15c.5-.05,1-.11,1.53-.19s1-.09,1.51-.17,1-.16,1.57-.27c.24-.07.49-.13.76-.19s.53-.12.81-.19l.82-.21q.39-.12.75-.27l1.79-5.87c-.69.22-1.36.41-2,.57s-1.3.34-1.91.51L57,28.87c-.54.12-1.07.25-1.6.35s-1,.2-1.47.27l-1.36.23-1.33.11c-.44,0-.87.06-1.27.06s-1.06,0-1.6-.07a10,10,0,0,1-1.48-.23,8,8,0,0,1-1.36-.41,6.14,6.14,0,0,1-1.19-.63,5.26,5.26,0,0,1-1-.78,4.67,4.67,0,0,1-.73-.89,5,5,0,0,1-.56-2.31v-.32l.06-.11v-.47l22.47-.15v.11a3.15,3.15,0,0,0,.09-.42,3.15,3.15,0,0,1,.09-.42,1.23,1.23,0,0,1,0-.29,1.9,1.9,0,0,1,.09-.29.44.44,0,0,1,0-.14.35.35,0,0,0,0-.13v-.21a1.47,1.47,0,0,1,0-.21v-.1l.06-.11V21l.06-.08Zm-10-1.41v.06l-11.91.07-.05.11v-.11h.05c.18-.34.36-.66.55-.95a6.5,6.5,0,0,1,.66-.9,3.73,3.73,0,0,1,.72-.77,8.88,8.88,0,0,1,.84-.61,6,6,0,0,1,.87-.46c.31-.12.64-.24,1-.34a3.75,3.75,0,0,1,.39-.09,1.59,1.59,0,0,0,.39-.08l.76-.08c.26,0,.53,0,.82,0a6.48,6.48,0,0,1,1.11.07,9.29,9.29,0,0,1,.94.18,5.07,5.07,0,0,1,.88.26,2.58,2.58,0,0,1,.7.41,2.28,2.28,0,0,1,.6.5,2.12,2.12,0,0,1,.37.6,3.93,3.93,0,0,1,.3.66,2.29,2.29,0,0,1,.12.76v.64Z"/><path class="cls-2" d="M40.9,19.66l.06-.11H40.9Z"/><path class="cls-3" d="M223,35.55h-10.2l0,0H223S223,35.57,223,35.55Z"/><path class="cls-3" d="M232.24,46,228,44.65C229.35,45.14,230.78,45.58,232.24,46Z"/><path class="cls-3" d="M232.44,46.05h0l-.18,0Z"/><path class="cls-1" d="M252.83,0a76.07,76.07,0,0,0-22.91,3.38h0L205,11.25h17.88c.67-2.36,4-4.13,8-4.1,4.47,0,8,2.31,8,5.07,0,1.68-1.37,3.14-3.42,4a11.79,11.79,0,0,1-4.72.9c-3.92,0-7.17-1.8-7.87-4.1H205.18c-13.51.65-24,5.42-24,11.21,0,6.24,12.16,11.29,27.16,11.29H223c.7-2.34,4-4.09,8-4a11.8,11.8,0,0,1,4.48.88c2.15.91,3.56,2.45,3.54,4.19,0,2.76-3.67,5-8.14,4.92-3.92,0-7.17-1.8-7.87-4.1H205l23,7.26L232.24,46l.18,0a77.28,77.28,0,0,0,20.41,2.64c24.88,0,45.06-10.9,45.06-24.34S277.71,0,252.83,0Zm.24,29.26c-3.93,0-7.18-1.8-7.88-4.1H216.88c-.66,2.36-4,4.14-8,4.1h-.19c-4.37-.1-7.86-2.34-7.83-5.06s3.55-4.88,7.9-4.92H209c3.93,0,7.18,1.8,7.88,4.1h28.31c.66-2.36,4-4.13,8-4.1,4.47,0,8.05,2.31,8,5.07S257.53,29.3,253.07,29.26Z"/><path class="cls-1" d="M91.17,19.22a5.09,5.09,0,0,0-2.12-1.86,7.26,7.26,0,0,0-6.7,1,9.71,9.71,0,0,0-2.07,1.95L76.43,34.41H66.22l6.06-23.67H82.49l-.86,3.48.11.1.59-.46a21.6,21.6,0,0,1,3.58-2.22c.59-.26,1.16-.52,1.77-.72a12.13,12.13,0,0,1,6.13-.06A7,7,0,0,1,96.5,12C95.64,13.15,91.17,19.22,91.17,19.22Z"/><path class="cls-1" d="M162,5.76h-35l-1.36,5H114.34l1.37-5h-4.34L104,11l-.59.23H97.78l-1.37,3.94,5.13,0-3,10.06c-2.93,9.26,2.94,9.62,12.4,9.61h2.34c-2-.84-4.74-2.44-3.74-6.77l3.76-13.5h11.29l-4,15.46c-1.28,4.46,5,4.46,5,4.46L131,14.61h11.86c-.23.75-.44,1.52-.7,2.26,1-.47,2-.93,3.09-1.3,5-1.73,11.48-3,16.64-1.26a6.39,6.39,0,0,1,4.4,7.84c-.18.83-2.9,12.38-2.9,12.38l8.28-5.8s3-12.76,3.2-13.72C176.53,6.58,169.36,5.76,162,5.76Z"/><path class="cls-1" d="M154.3,22.77c.2-1.33.25-2.73-.86-3.55a4.41,4.41,0,0,0-2.55-.54,13.53,13.53,0,0,0-5.43,1.15,23.84,23.84,0,0,0-4.7,2.61L137.5,34.53h13.84S154.23,23.28,154.3,22.77Z"/><path class="cls-4" d="M2.08,41.56v2.7H4.93v-2.7H6.16v6.73H4.93v-3H2.08v3H.85V41.56Z"/><path class="cls-4" d="M10.57,48.29l-.08-.53h0A1.8,1.8,0,0,1,9,48.4,1.44,1.44,0,0,1,7.49,47c0-1.23,1.09-1.85,2.89-1.84V45c0-.32-.13-.85-1-.85a2.58,2.58,0,0,0-1.31.36l-.24-.8a3.51,3.51,0,0,1,1.76-.43,1.82,1.82,0,0,1,2,2v1.76a7.67,7.67,0,0,0,.07,1.16Zm-.16-2.37c-.87,0-1.7.17-1.7.91a.65.65,0,0,0,.7.7,1,1,0,0,0,1-.67.88.88,0,0,0,0-.27Z"/><path class="cls-4" d="M13.23,44.88c0-.56,0-1,0-1.45h1.08l.06.73h0a1.74,1.74,0,0,1,1.54-.84c.85,0,1.73.55,1.73,2.09v2.88H16.4V45.55c0-.7-.26-1.23-.93-1.23a1,1,0,0,0-1,.72,1.62,1.62,0,0,0,0,.4v2.85H13.23Z"/><path class="cls-4" d="M23.74,41.2v5.73c0,.5,0,1,0,1.36h-1.1l-.05-.76h0A1.75,1.75,0,0,1,21,48.4,2.22,2.22,0,0,1,19,45.92a2.32,2.32,0,0,1,2.18-2.6,1.54,1.54,0,0,1,1.36.64h0V41.2Zm-1.23,4.26a1.73,1.73,0,0,0,0-.32,1.07,1.07,0,0,0-1.05-.87c-.79,0-1.23.7-1.23,1.61s.44,1.54,1.22,1.54a1.08,1.08,0,0,0,1-.87,1.37,1.37,0,0,0,0-.36Z"/><path class="cls-4" d="M25.38,41.2h1.24v7.09H25.38Z"/><path class="cls-4" d="M29.57,42.07a.65.65,0,0,1-.7.66.64.64,0,0,1-.67-.66.69.69,0,0,1,1.37,0Zm-1.3,6.22V43.43H29.5v4.86Z"/><path class="cls-4" d="M31.14,44.88c0-.56,0-1,0-1.45h1.08l.06.73h0a1.76,1.76,0,0,1,1.55-.84c.85,0,1.73.55,1.73,2.09v2.88H34.32V45.55c0-.7-.26-1.23-.93-1.23a1,1,0,0,0-1,.72,1.25,1.25,0,0,0,0,.4v2.85H31.14Z"/><path class="cls-4" d="M41.62,43.43c0,.33,0,.73,0,1.4v2.76A2.34,2.34,0,0,1,39,50.38a3.45,3.45,0,0,1-1.7-.39l.27-.93a2.94,2.94,0,0,0,1.42.37A1.29,1.29,0,0,0,40.37,48v-.42h0a1.64,1.64,0,0,1-1.42.72,2.16,2.16,0,0,1-2.07-2.38,2.33,2.33,0,0,1,2.21-2.57,1.53,1.53,0,0,1,1.41.76h0l0-.65Zm-1.27,2a1.19,1.19,0,0,0,0-.33,1,1,0,0,0-1-.79c-.69,0-1.2.6-1.2,1.59,0,.83.42,1.5,1.19,1.5a1.05,1.05,0,0,0,1-.74,2.12,2.12,0,0,0,.05-.44Z"/><path class="cls-4" d="M50.48,48.09a4.26,4.26,0,0,1-1.74.3A3.17,3.17,0,0,1,45.3,45a3.39,3.39,0,0,1,3.6-3.56,3.87,3.87,0,0,1,1.64.3l-.27,1A3.27,3.27,0,0,0,49,42.47,2.24,2.24,0,0,0,46.59,45a2.21,2.21,0,0,0,2.35,2.43,3.44,3.44,0,0,0,1.34-.25Z"/><path class="cls-4" d="M56.26,45.82a2.4,2.4,0,0,1-2.5,2.58,2.35,2.35,0,0,1-2.44-2.5,2.4,2.4,0,0,1,2.52-2.58A2.34,2.34,0,0,1,56.26,45.82Zm-3.67,0c0,.94.46,1.65,1.21,1.65S55,46.83,55,45.85c0-.76-.34-1.63-1.18-1.63S52.59,45.06,52.59,45.87Z"/><path class="cls-4" d="M57.58,44.88c0-.56,0-1,0-1.45H58.6l0,.72h0a1.68,1.68,0,0,1,1.5-.83,1.4,1.4,0,0,1,1.35.9h0a1.84,1.84,0,0,1,.6-.61,1.63,1.63,0,0,1,1-.29c.81,0,1.63.55,1.63,2.11v2.86h-1.2V45.61c0-.81-.28-1.29-.87-1.29a.94.94,0,0,0-.86.65,1.76,1.76,0,0,0-.06.41v2.91h-1.2V45.48c0-.68-.27-1.16-.84-1.16a1,1,0,0,0-.88.7,1.05,1.05,0,0,0-.07.4v2.87h-1.2Z"/><path class="cls-4" d="M66.37,45.05c0-.64,0-1.16,0-1.62h1.08l.06.75h0a1.9,1.9,0,0,1,1.67-.86,2.21,2.21,0,0,1,2,2.48A2.31,2.31,0,0,1,69,48.4a1.59,1.59,0,0,1-1.37-.64h0v2.51H66.37Zm1.23,1.21a1.27,1.27,0,0,0,0,.34,1.11,1.11,0,0,0,1.08.86c.78,0,1.24-.65,1.24-1.61s-.42-1.56-1.21-1.56a1.15,1.15,0,0,0-1.1.91,1.12,1.12,0,0,0-.05.31Z"/><path class="cls-4" d="M76.89,46.84c0,.58,0,1.06,0,1.45H75.85l-.06-.73h0a1.76,1.76,0,0,1-1.56.84c-.89,0-1.7-.53-1.7-2.11V43.43h1.23v2.65c0,.81.26,1.33.91,1.33a1,1,0,0,0,.94-.66,1.12,1.12,0,0,0,.07-.38V43.43h1.23Z"/><path class="cls-4" d="M79.94,42v1.39h1.17v.92H79.94V46.5c0,.59.16.9.63.9a1.82,1.82,0,0,0,.48-.06l0,.93a2.7,2.7,0,0,1-.89.12,1.38,1.38,0,0,1-1.05-.4,1.9,1.9,0,0,1-.38-1.35V44.35h-.7v-.92h.7v-1.1Z"/><path class="cls-4" d="M83.17,46.21a1.32,1.32,0,0,0,1.5,1.26A3.66,3.66,0,0,0,86,47.25l.18.84a4.39,4.39,0,0,1-1.7.3A2.3,2.3,0,0,1,82,45.94a2.41,2.41,0,0,1,2.38-2.62,2.12,2.12,0,0,1,2.1,2.37,3,3,0,0,1,0,.52Zm2.14-.86a1,1,0,0,0-1-1.19,1.2,1.2,0,0,0-1.13,1.19Z"/><path class="cls-4" d="M87.77,45c0-.66,0-1.13,0-1.57H88.8l0,.93h0a1.45,1.45,0,0,1,1.33-1,1.29,1.29,0,0,1,.29,0v1.16a1.71,1.71,0,0,0-.36,0,1.08,1.08,0,0,0-1.1.93,2.11,2.11,0,0,0,0,.38v2.51H87.77Z"/><path class="cls-4" d="M94.05,47a3.41,3.41,0,0,0,1.63.43c.79,0,1.23-.37,1.23-.92s-.34-.81-1.2-1.12c-1.11-.4-1.82-1-1.82-2s.92-1.94,2.38-1.94a3.56,3.56,0,0,1,1.62.34l-.3,1a2.85,2.85,0,0,0-1.34-.32c-.78,0-1.12.42-1.12.81s.39.76,1.29,1.11c1.17.44,1.74,1,1.74,2s-.82,2-2.56,2A4.15,4.15,0,0,1,93.78,48Z"/><path class="cls-4" d="M100.46,46.21a1.32,1.32,0,0,0,1.5,1.26,3.66,3.66,0,0,0,1.35-.22l.18.84a4.39,4.39,0,0,1-1.7.3,2.29,2.29,0,0,1-2.5-2.45,2.41,2.41,0,0,1,2.37-2.62,2.12,2.12,0,0,1,2.1,2.37,3,3,0,0,1,0,.52Zm2.14-.86a1,1,0,0,0-1-1.19,1.2,1.2,0,0,0-1.13,1.19Z"/><path class="cls-4" d="M108.64,48.15a3.58,3.58,0,0,1-1.37.24,2.33,2.33,0,0,1-2.51-2.47,2.52,2.52,0,0,1,2.7-2.6,3.07,3.07,0,0,1,1.19.23l-.22.92a2.15,2.15,0,0,0-.92-.19,1.58,1.58,0,0,0,0,3.15,2.39,2.39,0,0,0,1-.19Z"/><path class="cls-4" d="M114.23,46.84c0,.58,0,1.06,0,1.45h-1.08l-.06-.73h0a1.76,1.76,0,0,1-1.56.84c-.89,0-1.7-.53-1.7-2.11V43.43h1.23v2.65c0,.81.26,1.33.91,1.33a1,1,0,0,0,.94-.66,1.12,1.12,0,0,0,.07-.38V43.43h1.23Z"/><path class="cls-4" d="M115.87,45c0-.66,0-1.13,0-1.57h1.07l0,.93h0a1.45,1.45,0,0,1,1.33-1,1.29,1.29,0,0,1,.29,0v1.16a1.71,1.71,0,0,0-.36,0,1.08,1.08,0,0,0-1.1.93,2.11,2.11,0,0,0,0,.38v2.51h-1.23Z"/><path class="cls-4" d="M121.06,42.07a.69.69,0,1,1-.69-.67A.65.65,0,0,1,121.06,42.07Zm-1.31,6.22V43.43H121v4.86Z"/><path class="cls-4" d="M124,42v1.39h1.17v.92H124V46.5c0,.59.16.9.63.9a1.82,1.82,0,0,0,.48-.06l0,.93a2.7,2.7,0,0,1-.89.12,1.42,1.42,0,0,1-1.06-.4,1.9,1.9,0,0,1-.38-1.35V44.35h-.7v-.92h.7v-1.1Z"/><path class="cls-4" d="M127.29,43.43l.88,2.61c.1.3.2.67.27,1h0c.08-.28.17-.64.26-1l.76-2.6h1.31l-1.22,3.32a7.22,7.22,0,0,1-1.69,3.12,2.47,2.47,0,0,1-1.29.63l-.28-1a2.11,2.11,0,0,0,.72-.34,2.15,2.15,0,0,0,.67-.77.46.46,0,0,0,.08-.21.52.52,0,0,0-.07-.24l-1.78-4.47Z"/><path class="cls-4" d="M135.5,41.56v6.73h-1.23V41.56Z"/><path class="cls-4" d="M137.23,44.88c0-.56,0-1,0-1.45h1.08l.06.73h0a1.76,1.76,0,0,1,1.55-.84c.85,0,1.73.55,1.73,2.09v2.88h-1.23V45.55c0-.7-.26-1.23-.93-1.23a1,1,0,0,0-1,.72,1.25,1.25,0,0,0-.05.4v2.85h-1.24Z"/><path class="cls-4" d="M146.84,48.15a3.59,3.59,0,0,1-1.38.24A2.33,2.33,0,0,1,143,45.92a2.52,2.52,0,0,1,2.71-2.6,3.07,3.07,0,0,1,1.19.23l-.22.92a2.17,2.17,0,0,0-.93-.19,1.58,1.58,0,0,0,0,3.15,2.41,2.41,0,0,0,1-.19Z"/><path class="cls-4" d="M149.38,42.07a.69.69,0,1,1-.69-.67A.66.66,0,0,1,149.38,42.07Zm-1.31,6.22V43.43h1.23v4.86Z"/><path class="cls-4" d="M155.43,41.2v5.73c0,.5,0,1,0,1.36h-1.1l-.05-.76h0a1.76,1.76,0,0,1-1.59.87,2.22,2.22,0,0,1-2.08-2.48,2.32,2.32,0,0,1,2.18-2.6,1.55,1.55,0,0,1,1.37.64h0V41.2Zm-1.23,4.26a1.73,1.73,0,0,0,0-.32,1.08,1.08,0,0,0-1.06-.87c-.79,0-1.23.7-1.23,1.61s.44,1.54,1.22,1.54a1.08,1.08,0,0,0,1.06-.87,1.37,1.37,0,0,0,0-.36Z"/><path class="cls-4" d="M157.93,46.21a1.32,1.32,0,0,0,1.5,1.26,3.66,3.66,0,0,0,1.35-.22l.18.84a4.39,4.39,0,0,1-1.7.3,2.3,2.3,0,0,1-2.51-2.45,2.41,2.41,0,0,1,2.38-2.62,2.12,2.12,0,0,1,2.1,2.37,3,3,0,0,1,0,.52Zm2.14-.86a1,1,0,0,0-1-1.19,1.2,1.2,0,0,0-1.13,1.19Z"/><path class="cls-4" d="M162.54,44.88c0-.56,0-1,0-1.45h1.08l.06.73h0a1.74,1.74,0,0,1,1.54-.84c.85,0,1.73.55,1.73,2.09v2.88h-1.23V45.55c0-.7-.26-1.23-.93-1.23a1,1,0,0,0-1,.72,1.62,1.62,0,0,0,0,.4v2.85h-1.23Z"/><path class="cls-4" d="M169.93,42v1.39h1.17v.92h-1.17V46.5c0,.59.16.9.63.9a1.82,1.82,0,0,0,.48-.06l0,.93a2.7,2.7,0,0,1-.89.12,1.42,1.42,0,0,1-1.06-.4,1.9,1.9,0,0,1-.38-1.35V44.35H168v-.92h.7v-1.1Z"/><path class="cls-4" d="M172.28,47.17a2.74,2.74,0,0,0,1.25.35c.54,0,.78-.22.78-.54s-.2-.5-.8-.71c-.95-.33-1.35-.85-1.34-1.42A1.63,1.63,0,0,1,174,43.32a2.86,2.86,0,0,1,1.29.29l-.24.87a2.19,2.19,0,0,0-1-.28c-.44,0-.68.21-.68.51s.23.46.85.68c.88.32,1.29.77,1.3,1.49,0,.88-.69,1.51-2,1.51a3.14,3.14,0,0,1-1.48-.34Z"/></g></g></svg>