<svg xmlns="http://www.w3.org/2000/svg" xmlns:xlink="http://www.w3.org/1999/xlink" viewBox="0 0 29 29" width="100%" height="100%" fill="#ffffff"><rect fill="#ffffff" width="100%" height="100%"/><rect fill="#000000" width="1" height="1" id="template"/><use x="0" y="0" xlink:href="#template"/><use x="1" y="0" xlink:href="#template"/><use x="2" y="0" xlink:href="#template"/><use x="3" y="0" xlink:href="#template"/><use x="4" y="0" xlink:href="#template"/><use x="5" y="0" xlink:href="#template"/><use x="6" y="0" xlink:href="#template"/><use x="9" y="0" xlink:href="#template"/><use x="12" y="0" xlink:href="#template"/><use x="13" y="0" xlink:href="#template"/><use x="16" y="0" xlink:href="#template"/><use x="17" y="0" xlink:href="#template"/><use x="18" y="0" xlink:href="#template"/><use x="20" y="0" xlink:href="#template"/><use x="22" y="0" xlink:href="#template"/><use x="23" y="0" xlink:href="#template"/><use x="24" y="0" xlink:href="#template"/><use x="25" y="0" xlink:href="#template"/><use x="26" y="0" xlink:href="#template"/><use x="27" y="0" xlink:href="#template"/><use x="28" y="0" xlink:href="#template"/><use x="0" y="1" xlink:href="#template"/><use x="6" y="1" xlink:href="#template"/><use x="9" y="1" xlink:href="#template"/><use x="10" y="1" xlink:href="#template"/><use x="12" y="1" xlink:href="#template"/><use x="13" y="1" xlink:href="#template"/><use x="19" y="1" xlink:href="#template"/><use x="20" y="1" xlink:href="#template"/><use x="22" y="1" xlink:href="#template"/><use x="28" y="1" xlink:href="#template"/><use x="0" y="2" xlink:href="#template"/><use x="2" y="2" xlink:href="#template"/><use x="3" y="2" xlink:href="#template"/><use x="4" y="2" xlink:href="#template"/><use x="6" y="2" xlink:href="#template"/><use x="9" y="2" xlink:href="#template"/><use x="10" y="2" xlink:href="#template"/><use x="15" y="2" xlink:href="#template"/><use x="20" y="2" xlink:href="#template"/><use x="22" y="2" xlink:href="#template"/><use x="24" y="2" xlink:href="#template"/><use x="25" y="2" xlink:href="#template"/><use x="26" y="2" xlink:href="#template"/><use x="28" y="2" xlink:href="#template"/><use x="0" y="3" xlink:href="#template"/><use x="2" y="3" xlink:href="#template"/><use x="3" y="3" xlink:href="#template"/><use x="4" y="3" xlink:href="#template"/><use x="6" y="3" xlink:href="#template"/><use x="9" y="3" xlink:href="#template"/><use x="12" y="3" xlink:href="#template"/><use x="14" y="3" xlink:href="#template"/><use x="15" y="3" xlink:href="#template"/><use x="17" y="3" xlink:href="#template"/><use x="19" y="3" xlink:href="#template"/><use x="22" y="3" xlink:href="#template"/><use x="24" y="3" xlink:href="#template"/><use x="25" y="3" xlink:href="#template"/><use x="26" y="3" xlink:href="#template"/><use x="28" y="3" xlink:href="#template"/><use x="0" y="4" xlink:href="#template"/><use x="2" y="4" xlink:href="#template"/><use x="3" y="4" xlink:href="#template"/><use x="4" y="4" xlink:href="#template"/><use x="6" y="4" xlink:href="#template"/><use x="8" y="4" xlink:href="#template"/><use x="9" y="4" xlink:href="#template"/><use x="10" y="4" xlink:href="#template"/><use x="12" y="4" xlink:href="#template"/><use x="13" y="4" xlink:href="#template"/><use x="15" y="4" xlink:href="#template"/><use x="16" y="4" xlink:href="#template"/><use x="17" y="4" xlink:href="#template"/><use x="18" y="4" xlink:href="#template"/><use x="19" y="4" xlink:href="#template"/><use x="22" y="4" xlink:href="#template"/><use x="24" y="4" xlink:href="#template"/><use x="25" y="4" xlink:href="#template"/><use x="26" y="4" xlink:href="#template"/><use x="28" y="4" xlink:href="#template"/><use x="0" y="5" xlink:href="#template"/><use x="6" y="5" xlink:href="#template"/><use x="9" y="5" xlink:href="#template"/><use x="10" y="5" xlink:href="#template"/><use x="11" y="5" xlink:href="#template"/><use x="12" y="5" xlink:href="#template"/><use x="13" y="5" xlink:href="#template"/><use x="16" y="5" xlink:href="#template"/><use x="19" y="5" xlink:href="#template"/><use x="20" y="5" xlink:href="#template"/><use x="22" y="5" xlink:href="#template"/><use x="28" y="5" xlink:href="#template"/><use x="0" y="6" xlink:href="#template"/><use x="1" y="6" xlink:href="#template"/><use x="2" y="6" xlink:href="#template"/><use x="3" y="6" xlink:href="#template"/><use x="4" y="6" xlink:href="#template"/><use x="5" y="6" xlink:href="#template"/><use x="6" y="6" xlink:href="#template"/><use x="8" y="6" xlink:href="#template"/><use x="10" y="6" xlink:href="#template"/><use x="12" y="6" xlink:href="#template"/><use x="14" y="6" xlink:href="#template"/><use x="16" y="6" xlink:href="#template"/><use x="18" y="6" xlink:href="#template"/><use x="20" y="6" xlink:href="#template"/><use x="22" y="6" xlink:href="#template"/><use x="23" y="6" xlink:href="#template"/><use x="24" y="6" xlink:href="#template"/><use x="25" y="6" xlink:href="#template"/><use x="26" y="6" xlink:href="#template"/><use x="27" y="6" xlink:href="#template"/><use x="28" y="6" xlink:href="#template"/><use x="8" y="7" xlink:href="#template"/><use x="10" y="7" xlink:href="#template"/><use x="13" y="7" xlink:href="#template"/><use x="17" y="7" xlink:href="#template"/><use x="18" y="7" xlink:href="#template"/><use x="20" y="7" xlink:href="#template"/><use x="2" y="8" xlink:href="#template"/><use x="3" y="8" xlink:href="#template"/><use x="6" y="8" xlink:href="#template"/><use x="7" y="8" xlink:href="#template"/><use x="8" y="8" xlink:href="#template"/><use x="9" y="8" xlink:href="#template"/><use x="12" y="8" xlink:href="#template"/><use x="15" y="8" xlink:href="#template"/><use x="16" y="8" xlink:href="#template"/><use x="20" y="8" xlink:href="#template"/><use x="21" y="8" xlink:href="#template"/><use x="22" y="8" xlink:href="#template"/><use x="24" y="8" xlink:href="#template"/><use x="1" y="9" xlink:href="#template"/><use x="2" y="9" xlink:href="#template"/><use x="3" y="9" xlink:href="#template"/><use x="4" y="9" xlink:href="#template"/><use x="5" y="9" xlink:href="#template"/><use x="9" y="9" xlink:href="#template"/><use x="10" y="9" xlink:href="#template"/><use x="11" y="9" xlink:href="#template"/><use x="15" y="9" xlink:href="#template"/><use x="16" y="9" xlink:href="#template"/><use x="21" y="9" xlink:href="#template"/><use x="24" y="9" xlink:href="#template"/><use x="25" y="9" xlink:href="#template"/><use x="26" y="9" xlink:href="#template"/><use x="28" y="9" xlink:href="#template"/><use x="0" y="10" xlink:href="#template"/><use x="6" y="10" xlink:href="#template"/><use x="7" y="10" xlink:href="#template"/><use x="10" y="10" xlink:href="#template"/><use x="13" y="10" xlink:href="#template"/><use x="15" y="10" xlink:href="#template"/><use x="16" y="10" xlink:href="#template"/><use x="18" y="10" xlink:href="#template"/><use x="22" y="10" xlink:href="#template"/><use x="24" y="10" xlink:href="#template"/><use x="25" y="10" xlink:href="#template"/><use x="26" y="10" xlink:href="#template"/><use x="27" y="10" xlink:href="#template"/><use x="1" y="11" xlink:href="#template"/><use x="3" y="11" xlink:href="#template"/><use x="4" y="11" xlink:href="#template"/><use x="5" y="11" xlink:href="#template"/><use x="7" y="11" xlink:href="#template"/><use x="8" y="11" xlink:href="#template"/><use x="11" y="11" xlink:href="#template"/><use x="12" y="11" xlink:href="#template"/><use x="16" y="11" xlink:href="#template"/><use x="18" y="11" xlink:href="#template"/><use x="19" y="11" xlink:href="#template"/><use x="28" y="11" xlink:href="#template"/><use x="1" y="12" xlink:href="#template"/><use x="5" y="12" xlink:href="#template"/><use x="6" y="12" xlink:href="#template"/><use x="7" y="12" xlink:href="#template"/><use x="14" y="12" xlink:href="#template"/><use x="16" y="12" xlink:href="#template"/><use x="21" y="12" xlink:href="#template"/><use x="23" y="12" xlink:href="#template"/><use x="26" y="12" xlink:href="#template"/><use x="27" y="12" xlink:href="#template"/><use x="28" y="12" xlink:href="#template"/><use x="3" y="13" xlink:href="#template"/><use x="5" y="13" xlink:href="#template"/><use x="8" y="13" xlink:href="#template"/><use x="9" y="13" xlink:href="#template"/><use x="10" y="13" xlink:href="#template"/><use x="12" y="13" xlink:href="#template"/><use x="13" y="13" xlink:href="#template"/><use x="14" y="13" xlink:href="#template"/><use x="16" y="13" xlink:href="#template"/><use x="19" y="13" xlink:href="#template"/><use x="22" y="13" xlink:href="#template"/><use x="23" y="13" xlink:href="#template"/><use x="25" y="13" xlink:href="#template"/><use x="26" y="13" xlink:href="#template"/><use x="28" y="13" xlink:href="#template"/><use x="0" y="14" xlink:href="#template"/><use x="1" y="14" xlink:href="#template"/><use x="2" y="14" xlink:href="#template"/><use x="3" y="14" xlink:href="#template"/><use x="4" y="14" xlink:href="#template"/><use x="6" y="14" xlink:href="#template"/><use x="7" y="14" xlink:href="#template"/><use x="8" y="14" xlink:href="#template"/><use x="9" y="14" xlink:href="#template"/><use x="10" y="14" xlink:href="#template"/><use x="11" y="14" xlink:href="#template"/><use x="12" y="14" xlink:href="#template"/><use x="15" y="14" xlink:href="#template"/><use x="16" y="14" xlink:href="#template"/><use x="19" y="14" xlink:href="#template"/><use x="21" y="14" xlink:href="#template"/><use x="23" y="14" xlink:href="#template"/><use x="24" y="14" xlink:href="#template"/><use x="25" y="14" xlink:href="#template"/><use x="27" y="14" xlink:href="#template"/><use x="28" y="14" xlink:href="#template"/><use x="1" y="15" xlink:href="#template"/><use x="3" y="15" xlink:href="#template"/><use x="4" y="15" xlink:href="#template"/><use x="8" y="15" xlink:href="#template"/><use x="10" y="15" xlink:href="#template"/><use x="12" y="15" xlink:href="#template"/><use x="15" y="15" xlink:href="#template"/><use x="16" y="15" xlink:href="#template"/><use x="17" y="15" xlink:href="#template"/><use x="20" y="15" xlink:href="#template"/><use x="21" y="15" xlink:href="#template"/><use x="22" y="15" xlink:href="#template"/><use x="24" y="15" xlink:href="#template"/><use x="25" y="15" xlink:href="#template"/><use x="27" y="15" xlink:href="#template"/><use x="28" y="15" xlink:href="#template"/><use x="1" y="16" xlink:href="#template"/><use x="2" y="16" xlink:href="#template"/><use x="3" y="16" xlink:href="#template"/><use x="4" y="16" xlink:href="#template"/><use x="6" y="16" xlink:href="#template"/><use x="9" y="16" xlink:href="#template"/><use x="11" y="16" xlink:href="#template"/><use x="13" y="16" xlink:href="#template"/><use x="15" y="16" xlink:href="#template"/><use x="16" y="16" xlink:href="#template"/><use x="18" y="16" xlink:href="#template"/><use x="19" y="16" xlink:href="#template"/><use x="20" y="16" xlink:href="#template"/><use x="21" y="16" xlink:href="#template"/><use x="22" y="16" xlink:href="#template"/><use x="23" y="16" xlink:href="#template"/><use x="24" y="16" xlink:href="#template"/><use x="25" y="16" xlink:href="#template"/><use x="27" y="16" xlink:href="#template"/><use x="28" y="16" xlink:href="#template"/><use x="1" y="17" xlink:href="#template"/><use x="2" y="17" xlink:href="#template"/><use x="3" y="17" xlink:href="#template"/><use x="7" y="17" xlink:href="#template"/><use x="8" y="17" xlink:href="#template"/><use x="9" y="17" xlink:href="#template"/><use x="11" y="17" xlink:href="#template"/><use x="12" y="17" xlink:href="#template"/><use x="13" y="17" xlink:href="#template"/><use x="18" y="17" xlink:href="#template"/><use x="19" y="17" xlink:href="#template"/><use x="20" y="17" xlink:href="#template"/><use x="22" y="17" xlink:href="#template"/><use x="23" y="17" xlink:href="#template"/><use x="0" y="18" xlink:href="#template"/><use x="2" y="18" xlink:href="#template"/><use x="3" y="18" xlink:href="#template"/><use x="4" y="18" xlink:href="#template"/><use x="6" y="18" xlink:href="#template"/><use x="8" y="18" xlink:href="#template"/><use x="11" y="18" xlink:href="#template"/><use x="13" y="18" xlink:href="#template"/><use x="14" y="18" xlink:href="#template"/><use x="15" y="18" xlink:href="#template"/><use x="16" y="18" xlink:href="#template"/><use x="18" y="18" xlink:href="#template"/><use x="19" y="18" xlink:href="#template"/><use x="22" y="18" xlink:href="#template"/><use x="25" y="18" xlink:href="#template"/><use x="2" y="19" xlink:href="#template"/><use x="4" y="19" xlink:href="#template"/><use x="5" y="19" xlink:href="#template"/><use x="8" y="19" xlink:href="#template"/><use x="11" y="19" xlink:href="#template"/><use x="12" y="19" xlink:href="#template"/><use x="13" y="19" xlink:href="#template"/><use x="15" y="19" xlink:href="#template"/><use x="17" y="19" xlink:href="#template"/><use x="19" y="19" xlink:href="#template"/><use x="21" y="19" xlink:href="#template"/><use x="22" y="19" xlink:href="#template"/><use x="26" y="19" xlink:href="#template"/><use x="28" y="19" xlink:href="#template"/><use x="1" y="20" xlink:href="#template"/><use x="5" y="20" xlink:href="#template"/><use x="6" y="20" xlink:href="#template"/><use x="7" y="20" xlink:href="#template"/><use x="10" y="20" xlink:href="#template"/><use x="12" y="20" xlink:href="#template"/><use x="15" y="20" xlink:href="#template"/><use x="17" y="20" xlink:href="#template"/><use x="18" y="20" xlink:href="#template"/><use x="20" y="20" xlink:href="#template"/><use x="21" y="20" xlink:href="#template"/><use x="22" y="20" xlink:href="#template"/><use x="23" y="20" xlink:href="#template"/><use x="24" y="20" xlink:href="#template"/><use x="25" y="20" xlink:href="#template"/><use x="26" y="20" xlink:href="#template"/><use x="28" y="20" xlink:href="#template"/><use x="8" y="21" xlink:href="#template"/><use x="14" y="21" xlink:href="#template"/><use x="17" y="21" xlink:href="#template"/><use x="18" y="21" xlink:href="#template"/><use x="20" y="21" xlink:href="#template"/><use x="24" y="21" xlink:href="#template"/><use x="25" y="21" xlink:href="#template"/><use x="27" y="21" xlink:href="#template"/><use x="28" y="21" xlink:href="#template"/><use x="0" y="22" xlink:href="#template"/><use x="1" y="22" xlink:href="#template"/><use x="2" y="22" xlink:href="#template"/><use x="3" y="22" xlink:href="#template"/><use x="4" y="22" xlink:href="#template"/><use x="5" y="22" xlink:href="#template"/><use x="6" y="22" xlink:href="#template"/><use x="8" y="22" xlink:href="#template"/><use x="11" y="22" xlink:href="#template"/><use x="12" y="22" xlink:href="#template"/><use x="13" y="22" xlink:href="#template"/><use x="15" y="22" xlink:href="#template"/><use x="16" y="22" xlink:href="#template"/><use x="19" y="22" xlink:href="#template"/><use x="20" y="22" xlink:href="#template"/><use x="22" y="22" xlink:href="#template"/><use x="24" y="22" xlink:href="#template"/><use x="26" y="22" xlink:href="#template"/><use x="0" y="23" xlink:href="#template"/><use x="6" y="23" xlink:href="#template"/><use x="9" y="23" xlink:href="#template"/><use x="14" y="23" xlink:href="#template"/><use x="17" y="23" xlink:href="#template"/><use x="20" y="23" xlink:href="#template"/><use x="24" y="23" xlink:href="#template"/><use x="27" y="23" xlink:href="#template"/><use x="28" y="23" xlink:href="#template"/><use x="0" y="24" xlink:href="#template"/><use x="2" y="24" xlink:href="#template"/><use x="3" y="24" xlink:href="#template"/><use x="4" y="24" xlink:href="#template"/><use x="6" y="24" xlink:href="#template"/><use x="10" y="24" xlink:href="#template"/><use x="13" y="24" xlink:href="#template"/><use x="14" y="24" xlink:href="#template"/><use x="17" y="24" xlink:href="#template"/><use x="20" y="24" xlink:href="#template"/><use x="21" y="24" xlink:href="#template"/><use x="22" y="24" xlink:href="#template"/><use x="23" y="24" xlink:href="#template"/><use x="24" y="24" xlink:href="#template"/><use x="25" y="24" xlink:href="#template"/><use x="26" y="24" xlink:href="#template"/><use x="0" y="25" xlink:href="#template"/><use x="2" y="25" xlink:href="#template"/><use x="3" y="25" xlink:href="#template"/><use x="4" y="25" xlink:href="#template"/><use x="6" y="25" xlink:href="#template"/><use x="8" y="25" xlink:href="#template"/><use x="10" y="25" xlink:href="#template"/><use x="14" y="25" xlink:href="#template"/><use x="15" y="25" xlink:href="#template"/><use x="18" y="25" xlink:href="#template"/><use x="19" y="25" xlink:href="#template"/><use x="24" y="25" xlink:href="#template"/><use x="25" y="25" xlink:href="#template"/><use x="27" y="25" xlink:href="#template"/><use x="0" y="26" xlink:href="#template"/><use x="2" y="26" xlink:href="#template"/><use x="3" y="26" xlink:href="#template"/><use x="4" y="26" xlink:href="#template"/><use x="6" y="26" xlink:href="#template"/><use x="8" y="26" xlink:href="#template"/><use x="11" y="26" xlink:href="#template"/><use x="12" y="26" xlink:href="#template"/><use x="13" y="26" xlink:href="#template"/><use x="15" y="26" xlink:href="#template"/><use x="16" y="26" xlink:href="#template"/><use x="17" y="26" xlink:href="#template"/><use x="18" y="26" xlink:href="#template"/><use x="20" y="26" xlink:href="#template"/><use x="23" y="26" xlink:href="#template"/><use x="26" y="26" xlink:href="#template"/><use x="28" y="26" xlink:href="#template"/><use x="0" y="27" xlink:href="#template"/><use x="6" y="27" xlink:href="#template"/><use x="10" y="27" xlink:href="#template"/><use x="11" y="27" xlink:href="#template"/><use x="12" y="27" xlink:href="#template"/><use x="13" y="27" xlink:href="#template"/><use x="16" y="27" xlink:href="#template"/><use x="19" y="27" xlink:href="#template"/><use x="21" y="27" xlink:href="#template"/><use x="24" y="27" xlink:href="#template"/><use x="25" y="27" xlink:href="#template"/><use x="27" y="27" xlink:href="#template"/><use x="0" y="28" xlink:href="#template"/><use x="1" y="28" xlink:href="#template"/><use x="2" y="28" xlink:href="#template"/><use x="3" y="28" xlink:href="#template"/><use x="4" y="28" xlink:href="#template"/><use x="5" y="28" xlink:href="#template"/><use x="6" y="28" xlink:href="#template"/><use x="10" y="28" xlink:href="#template"/><use x="11" y="28" xlink:href="#template"/><use x="13" y="28" xlink:href="#template"/><use x="14" y="28" xlink:href="#template"/><use x="18" y="28" xlink:href="#template"/><use x="20" y="28" xlink:href="#template"/><use x="21" y="28" xlink:href="#template"/><use x="23" y="28" xlink:href="#template"/><use x="25" y="28" xlink:href="#template"/><use x="27" y="28" xlink:href="#template"/></svg>