<svg xmlns="http://www.w3.org/2000/svg" viewBox="0 0 33 33" width="100%" height="100%" fill="#ffffff" xmlns:xlink="http://www.w3.org/1999/xlink"><rect fill="#ffffff" width="100%" height="100%"/><rect fill="#000000" width="1" height="1" id="template"/><use x="0" y="0" xlink:href="#template"/><use x="1" y="0" xlink:href="#template"/><use x="2" y="0" xlink:href="#template"/><use x="3" y="0" xlink:href="#template"/><use x="4" y="0" xlink:href="#template"/><use x="5" y="0" xlink:href="#template"/><use x="6" y="0" xlink:href="#template"/><use x="9" y="0" xlink:href="#template"/><use x="10" y="0" xlink:href="#template"/><use x="12" y="0" xlink:href="#template"/><use x="13" y="0" xlink:href="#template"/><use x="14" y="0" xlink:href="#template"/><use x="18" y="0" xlink:href="#template"/><use x="19" y="0" xlink:href="#template"/><use x="21" y="0" xlink:href="#template"/><use x="23" y="0" xlink:href="#template"/><use x="24" y="0" xlink:href="#template"/><use x="26" y="0" xlink:href="#template"/><use x="27" y="0" xlink:href="#template"/><use x="28" y="0" xlink:href="#template"/><use x="29" y="0" xlink:href="#template"/><use x="30" y="0" xlink:href="#template"/><use x="31" y="0" xlink:href="#template"/><use x="32" y="0" xlink:href="#template"/><use x="0" y="1" xlink:href="#template"/><use x="6" y="1" xlink:href="#template"/><use x="9" y="1" xlink:href="#template"/><use x="10" y="1" xlink:href="#template"/><use x="11" y="1" xlink:href="#template"/><use x="12" y="1" xlink:href="#template"/><use x="13" y="1" xlink:href="#template"/><use x="14" y="1" xlink:href="#template"/><use x="19" y="1" xlink:href="#template"/><use x="22" y="1" xlink:href="#template"/><use x="23" y="1" xlink:href="#template"/><use x="26" y="1" xlink:href="#template"/><use x="32" y="1" xlink:href="#template"/><use x="0" y="2" xlink:href="#template"/><use x="2" y="2" xlink:href="#template"/><use x="3" y="2" xlink:href="#template"/><use x="4" y="2" xlink:href="#template"/><use x="6" y="2" xlink:href="#template"/><use x="9" y="2" xlink:href="#template"/><use x="10" y="2" xlink:href="#template"/><use x="11" y="2" xlink:href="#template"/><use x="13" y="2" xlink:href="#template"/><use x="14" y="2" xlink:href="#template"/><use x="15" y="2" xlink:href="#template"/><use x="16" y="2" xlink:href="#template"/><use x="19" y="2" xlink:href="#template"/><use x="20" y="2" xlink:href="#template"/><use x="23" y="2" xlink:href="#template"/><use x="26" y="2" xlink:href="#template"/><use x="28" y="2" xlink:href="#template"/><use x="29" y="2" xlink:href="#template"/><use x="30" y="2" xlink:href="#template"/><use x="32" y="2" xlink:href="#template"/><use x="0" y="3" xlink:href="#template"/><use x="2" y="3" xlink:href="#template"/><use x="3" y="3" xlink:href="#template"/><use x="4" y="3" xlink:href="#template"/><use x="6" y="3" xlink:href="#template"/><use x="10" y="3" xlink:href="#template"/><use x="11" y="3" xlink:href="#template"/><use x="13" y="3" xlink:href="#template"/><use x="14" y="3" xlink:href="#template"/><use x="15" y="3" xlink:href="#template"/><use x="23" y="3" xlink:href="#template"/><use x="26" y="3" xlink:href="#template"/><use x="28" y="3" xlink:href="#template"/><use x="29" y="3" xlink:href="#template"/><use x="30" y="3" xlink:href="#template"/><use x="32" y="3" xlink:href="#template"/><use x="0" y="4" xlink:href="#template"/><use x="2" y="4" xlink:href="#template"/><use x="3" y="4" xlink:href="#template"/><use x="4" y="4" xlink:href="#template"/><use x="6" y="4" xlink:href="#template"/><use x="8" y="4" xlink:href="#template"/><use x="11" y="4" xlink:href="#template"/><use x="12" y="4" xlink:href="#template"/><use x="15" y="4" xlink:href="#template"/><use x="17" y="4" xlink:href="#template"/><use x="18" y="4" xlink:href="#template"/><use x="23" y="4" xlink:href="#template"/><use x="26" y="4" xlink:href="#template"/><use x="28" y="4" xlink:href="#template"/><use x="29" y="4" xlink:href="#template"/><use x="30" y="4" xlink:href="#template"/><use x="32" y="4" xlink:href="#template"/><use x="0" y="5" xlink:href="#template"/><use x="6" y="5" xlink:href="#template"/><use x="10" y="5" xlink:href="#template"/><use x="12" y="5" xlink:href="#template"/><use x="13" y="5" xlink:href="#template"/><use x="16" y="5" xlink:href="#template"/><use x="17" y="5" xlink:href="#template"/><use x="19" y="5" xlink:href="#template"/><use x="20" y="5" xlink:href="#template"/><use x="22" y="5" xlink:href="#template"/><use x="24" y="5" xlink:href="#template"/><use x="26" y="5" xlink:href="#template"/><use x="32" y="5" xlink:href="#template"/><use x="0" y="6" xlink:href="#template"/><use x="1" y="6" xlink:href="#template"/><use x="2" y="6" xlink:href="#template"/><use x="3" y="6" xlink:href="#template"/><use x="4" y="6" xlink:href="#template"/><use x="5" y="6" xlink:href="#template"/><use x="6" y="6" xlink:href="#template"/><use x="8" y="6" xlink:href="#template"/><use x="10" y="6" xlink:href="#template"/><use x="12" y="6" xlink:href="#template"/><use x="14" y="6" xlink:href="#template"/><use x="16" y="6" xlink:href="#template"/><use x="18" y="6" xlink:href="#template"/><use x="20" y="6" xlink:href="#template"/><use x="22" y="6" xlink:href="#template"/><use x="24" y="6" xlink:href="#template"/><use x="26" y="6" xlink:href="#template"/><use x="27" y="6" xlink:href="#template"/><use x="28" y="6" xlink:href="#template"/><use x="29" y="6" xlink:href="#template"/><use x="30" y="6" xlink:href="#template"/><use x="31" y="6" xlink:href="#template"/><use x="32" y="6" xlink:href="#template"/><use x="8" y="7" xlink:href="#template"/><use x="9" y="7" xlink:href="#template"/><use x="10" y="7" xlink:href="#template"/><use x="13" y="7" xlink:href="#template"/><use x="15" y="7" xlink:href="#template"/><use x="18" y="7" xlink:href="#template"/><use x="20" y="7" xlink:href="#template"/><use x="22" y="7" xlink:href="#template"/><use x="23" y="7" xlink:href="#template"/><use x="2" y="8" xlink:href="#template"/><use x="3" y="8" xlink:href="#template"/><use x="6" y="8" xlink:href="#template"/><use x="7" y="8" xlink:href="#template"/><use x="8" y="8" xlink:href="#template"/><use x="9" y="8" xlink:href="#template"/><use x="10" y="8" xlink:href="#template"/><use x="11" y="8" xlink:href="#template"/><use x="13" y="8" xlink:href="#template"/><use x="14" y="8" xlink:href="#template"/><use x="18" y="8" xlink:href="#template"/><use x="19" y="8" xlink:href="#template"/><use x="22" y="8" xlink:href="#template"/><use x="25" y="8" xlink:href="#template"/><use x="26" y="8" xlink:href="#template"/><use x="28" y="8" xlink:href="#template"/><use x="0" y="9" xlink:href="#template"/><use x="2" y="9" xlink:href="#template"/><use x="3" y="9" xlink:href="#template"/><use x="4" y="9" xlink:href="#template"/><use x="8" y="9" xlink:href="#template"/><use x="10" y="9" xlink:href="#template"/><use x="13" y="9" xlink:href="#template"/><use x="14" y="9" xlink:href="#template"/><use x="16" y="9" xlink:href="#template"/><use x="17" y="9" xlink:href="#template"/><use x="18" y="9" xlink:href="#template"/><use x="22" y="9" xlink:href="#template"/><use x="25" y="9" xlink:href="#template"/><use x="26" y="9" xlink:href="#template"/><use x="30" y="9" xlink:href="#template"/><use x="32" y="9" xlink:href="#template"/><use x="4" y="10" xlink:href="#template"/><use x="6" y="10" xlink:href="#template"/><use x="8" y="10" xlink:href="#template"/><use x="9" y="10" xlink:href="#template"/><use x="14" y="10" xlink:href="#template"/><use x="17" y="10" xlink:href="#template"/><use x="18" y="10" xlink:href="#template"/><use x="21" y="10" xlink:href="#template"/><use x="22" y="10" xlink:href="#template"/><use x="25" y="10" xlink:href="#template"/><use x="26" y="10" xlink:href="#template"/><use x="30" y="10" xlink:href="#template"/><use x="31" y="10" xlink:href="#template"/><use x="32" y="10" xlink:href="#template"/><use x="0" y="11" xlink:href="#template"/><use x="1" y="11" xlink:href="#template"/><use x="2" y="11" xlink:href="#template"/><use x="4" y="11" xlink:href="#template"/><use x="5" y="11" xlink:href="#template"/><use x="7" y="11" xlink:href="#template"/><use x="9" y="11" xlink:href="#template"/><use x="10" y="11" xlink:href="#template"/><use x="12" y="11" xlink:href="#template"/><use x="13" y="11" xlink:href="#template"/><use x="14" y="11" xlink:href="#template"/><use x="18" y="11" xlink:href="#template"/><use x="20" y="11" xlink:href="#template"/><use x="21" y="11" xlink:href="#template"/><use x="22" y="11" xlink:href="#template"/><use x="23" y="11" xlink:href="#template"/><use x="24" y="11" xlink:href="#template"/><use x="27" y="11" xlink:href="#template"/><use x="28" y="11" xlink:href="#template"/><use x="31" y="11" xlink:href="#template"/><use x="2" y="12" xlink:href="#template"/><use x="5" y="12" xlink:href="#template"/><use x="6" y="12" xlink:href="#template"/><use x="7" y="12" xlink:href="#template"/><use x="14" y="12" xlink:href="#template"/><use x="16" y="12" xlink:href="#template"/><use x="17" y="12" xlink:href="#template"/><use x="18" y="12" xlink:href="#template"/><use x="20" y="12" xlink:href="#template"/><use x="21" y="12" xlink:href="#template"/><use x="22" y="12" xlink:href="#template"/><use x="23" y="12" xlink:href="#template"/><use x="24" y="12" xlink:href="#template"/><use x="27" y="12" xlink:href="#template"/><use x="29" y="12" xlink:href="#template"/><use x="31" y="12" xlink:href="#template"/><use x="32" y="12" xlink:href="#template"/><use x="1" y="13" xlink:href="#template"/><use x="2" y="13" xlink:href="#template"/><use x="7" y="13" xlink:href="#template"/><use x="9" y="13" xlink:href="#template"/><use x="11" y="13" xlink:href="#template"/><use x="13" y="13" xlink:href="#template"/><use x="14" y="13" xlink:href="#template"/><use x="16" y="13" xlink:href="#template"/><use x="19" y="13" xlink:href="#template"/><use x="20" y="13" xlink:href="#template"/><use x="21" y="13" xlink:href="#template"/><use x="24" y="13" xlink:href="#template"/><use x="27" y="13" xlink:href="#template"/><use x="28" y="13" xlink:href="#template"/><use x="30" y="13" xlink:href="#template"/><use x="1" y="14" xlink:href="#template"/><use x="3" y="14" xlink:href="#template"/><use x="4" y="14" xlink:href="#template"/><use x="5" y="14" xlink:href="#template"/><use x="6" y="14" xlink:href="#template"/><use x="10" y="14" xlink:href="#template"/><use x="13" y="14" xlink:href="#template"/><use x="15" y="14" xlink:href="#template"/><use x="17" y="14" xlink:href="#template"/><use x="18" y="14" xlink:href="#template"/><use x="20" y="14" xlink:href="#template"/><use x="21" y="14" xlink:href="#template"/><use x="24" y="14" xlink:href="#template"/><use x="26" y="14" xlink:href="#template"/><use x="30" y="14" xlink:href="#template"/><use x="0" y="15" xlink:href="#template"/><use x="1" y="15" xlink:href="#template"/><use x="5" y="15" xlink:href="#template"/><use x="10" y="15" xlink:href="#template"/><use x="12" y="15" xlink:href="#template"/><use x="14" y="15" xlink:href="#template"/><use x="15" y="15" xlink:href="#template"/><use x="20" y="15" xlink:href="#template"/><use x="21" y="15" xlink:href="#template"/><use x="22" y="15" xlink:href="#template"/><use x="25" y="15" xlink:href="#template"/><use x="28" y="15" xlink:href="#template"/><use x="29" y="15" xlink:href="#template"/><use x="32" y="15" xlink:href="#template"/><use x="1" y="16" xlink:href="#template"/><use x="3" y="16" xlink:href="#template"/><use x="4" y="16" xlink:href="#template"/><use x="5" y="16" xlink:href="#template"/><use x="6" y="16" xlink:href="#template"/><use x="8" y="16" xlink:href="#template"/><use x="9" y="16" xlink:href="#template"/><use x="10" y="16" xlink:href="#template"/><use x="11" y="16" xlink:href="#template"/><use x="13" y="16" xlink:href="#template"/><use x="16" y="16" xlink:href="#template"/><use x="18" y="16" xlink:href="#template"/><use x="21" y="16" xlink:href="#template"/><use x="24" y="16" xlink:href="#template"/><use x="26" y="16" xlink:href="#template"/><use x="27" y="16" xlink:href="#template"/><use x="28" y="16" xlink:href="#template"/><use x="29" y="16" xlink:href="#template"/><use x="31" y="16" xlink:href="#template"/><use x="32" y="16" xlink:href="#template"/><use x="0" y="17" xlink:href="#template"/><use x="8" y="17" xlink:href="#template"/><use x="9" y="17" xlink:href="#template"/><use x="10" y="17" xlink:href="#template"/><use x="11" y="17" xlink:href="#template"/><use x="12" y="17" xlink:href="#template"/><use x="14" y="17" xlink:href="#template"/><use x="21" y="17" xlink:href="#template"/><use x="22" y="17" xlink:href="#template"/><use x="23" y="17" xlink:href="#template"/><use x="26" y="17" xlink:href="#template"/><use x="28" y="17" xlink:href="#template"/><use x="30" y="17" xlink:href="#template"/><use x="1" y="18" xlink:href="#template"/><use x="2" y="18" xlink:href="#template"/><use x="3" y="18" xlink:href="#template"/><use x="4" y="18" xlink:href="#template"/><use x="6" y="18" xlink:href="#template"/><use x="8" y="18" xlink:href="#template"/><use x="9" y="18" xlink:href="#template"/><use x="10" y="18" xlink:href="#template"/><use x="11" y="18" xlink:href="#template"/><use x="12" y="18" xlink:href="#template"/><use x="15" y="18" xlink:href="#template"/><use x="20" y="18" xlink:href="#template"/><use x="22" y="18" xlink:href="#template"/><use x="28" y="18" xlink:href="#template"/><use x="30" y="18" xlink:href="#template"/><use x="3" y="19" xlink:href="#template"/><use x="4" y="19" xlink:href="#template"/><use x="5" y="19" xlink:href="#template"/><use x="7" y="19" xlink:href="#template"/><use x="9" y="19" xlink:href="#template"/><use x="11" y="19" xlink:href="#template"/><use x="12" y="19" xlink:href="#template"/><use x="13" y="19" xlink:href="#template"/><use x="14" y="19" xlink:href="#template"/><use x="19" y="19" xlink:href="#template"/><use x="22" y="19" xlink:href="#template"/><use x="25" y="19" xlink:href="#template"/><use x="26" y="19" xlink:href="#template"/><use x="31" y="19" xlink:href="#template"/><use x="32" y="19" xlink:href="#template"/><use x="3" y="20" xlink:href="#template"/><use x="5" y="20" xlink:href="#template"/><use x="6" y="20" xlink:href="#template"/><use x="8" y="20" xlink:href="#template"/><use x="11" y="20" xlink:href="#template"/><use x="13" y="20" xlink:href="#template"/><use x="16" y="20" xlink:href="#template"/><use x="21" y="20" xlink:href="#template"/><use x="25" y="20" xlink:href="#template"/><use x="27" y="20" xlink:href="#template"/><use x="29" y="20" xlink:href="#template"/><use x="30" y="20" xlink:href="#template"/><use x="31" y="20" xlink:href="#template"/><use x="0" y="21" xlink:href="#template"/><use x="1" y="21" xlink:href="#template"/><use x="2" y="21" xlink:href="#template"/><use x="3" y="21" xlink:href="#template"/><use x="8" y="21" xlink:href="#template"/><use x="11" y="21" xlink:href="#template"/><use x="12" y="21" xlink:href="#template"/><use x="13" y="21" xlink:href="#template"/><use x="17" y="21" xlink:href="#template"/><use x="18" y="21" xlink:href="#template"/><use x="19" y="21" xlink:href="#template"/><use x="20" y="21" xlink:href="#template"/><use x="22" y="21" xlink:href="#template"/><use x="25" y="21" xlink:href="#template"/><use x="32" y="21" xlink:href="#template"/><use x="2" y="22" xlink:href="#template"/><use x="4" y="22" xlink:href="#template"/><use x="6" y="22" xlink:href="#template"/><use x="7" y="22" xlink:href="#template"/><use x="12" y="22" xlink:href="#template"/><use x="15" y="22" xlink:href="#template"/><use x="16" y="22" xlink:href="#template"/><use x="18" y="22" xlink:href="#template"/><use x="20" y="22" xlink:href="#template"/><use x="21" y="22" xlink:href="#template"/><use x="22" y="22" xlink:href="#template"/><use x="26" y="22" xlink:href="#template"/><use x="28" y="22" xlink:href="#template"/><use x="31" y="22" xlink:href="#template"/><use x="32" y="22" xlink:href="#template"/><use x="1" y="23" xlink:href="#template"/><use x="7" y="23" xlink:href="#template"/><use x="9" y="23" xlink:href="#template"/><use x="12" y="23" xlink:href="#template"/><use x="13" y="23" xlink:href="#template"/><use x="16" y="23" xlink:href="#template"/><use x="17" y="23" xlink:href="#template"/><use x="18" y="23" xlink:href="#template"/><use x="19" y="23" xlink:href="#template"/><use x="20" y="23" xlink:href="#template"/><use x="21" y="23" xlink:href="#template"/><use x="22" y="23" xlink:href="#template"/><use x="23" y="23" xlink:href="#template"/><use x="24" y="23" xlink:href="#template"/><use x="25" y="23" xlink:href="#template"/><use x="29" y="23" xlink:href="#template"/><use x="31" y="23" xlink:href="#template"/><use x="32" y="23" xlink:href="#template"/><use x="0" y="24" xlink:href="#template"/><use x="3" y="24" xlink:href="#template"/><use x="5" y="24" xlink:href="#template"/><use x="6" y="24" xlink:href="#template"/><use x="8" y="24" xlink:href="#template"/><use x="11" y="24" xlink:href="#template"/><use x="12" y="24" xlink:href="#template"/><use x="16" y="24" xlink:href="#template"/><use x="18" y="24" xlink:href="#template"/><use x="19" y="24" xlink:href="#template"/><use x="21" y="24" xlink:href="#template"/><use x="22" y="24" xlink:href="#template"/><use x="23" y="24" xlink:href="#template"/><use x="24" y="24" xlink:href="#template"/><use x="25" y="24" xlink:href="#template"/><use x="26" y="24" xlink:href="#template"/><use x="27" y="24" xlink:href="#template"/><use x="28" y="24" xlink:href="#template"/><use x="31" y="24" xlink:href="#template"/><use x="8" y="25" xlink:href="#template"/><use x="11" y="25" xlink:href="#template"/><use x="13" y="25" xlink:href="#template"/><use x="15" y="25" xlink:href="#template"/><use x="16" y="25" xlink:href="#template"/><use x="19" y="25" xlink:href="#template"/><use x="23" y="25" xlink:href="#template"/><use x="24" y="25" xlink:href="#template"/><use x="28" y="25" xlink:href="#template"/><use x="30" y="25" xlink:href="#template"/><use x="0" y="26" xlink:href="#template"/><use x="1" y="26" xlink:href="#template"/><use x="2" y="26" xlink:href="#template"/><use x="3" y="26" xlink:href="#template"/><use x="4" y="26" xlink:href="#template"/><use x="5" y="26" xlink:href="#template"/><use x="6" y="26" xlink:href="#template"/><use x="8" y="26" xlink:href="#template"/><use x="13" y="26" xlink:href="#template"/><use x="15" y="26" xlink:href="#template"/><use x="16" y="26" xlink:href="#template"/><use x="17" y="26" xlink:href="#template"/><use x="19" y="26" xlink:href="#template"/><use x="20" y="26" xlink:href="#template"/><use x="22" y="26" xlink:href="#template"/><use x="24" y="26" xlink:href="#template"/><use x="26" y="26" xlink:href="#template"/><use x="28" y="26" xlink:href="#template"/><use x="29" y="26" xlink:href="#template"/><use x="30" y="26" xlink:href="#template"/><use x="0" y="27" xlink:href="#template"/><use x="6" y="27" xlink:href="#template"/><use x="9" y="27" xlink:href="#template"/><use x="10" y="27" xlink:href="#template"/><use x="16" y="27" xlink:href="#template"/><use x="17" y="27" xlink:href="#template"/><use x="20" y="27" xlink:href="#template"/><use x="21" y="27" xlink:href="#template"/><use x="22" y="27" xlink:href="#template"/><use x="24" y="27" xlink:href="#template"/><use x="28" y="27" xlink:href="#template"/><use x="29" y="27" xlink:href="#template"/><use x="30" y="27" xlink:href="#template"/><use x="31" y="27" xlink:href="#template"/><use x="32" y="27" xlink:href="#template"/><use x="0" y="28" xlink:href="#template"/><use x="2" y="28" xlink:href="#template"/><use x="3" y="28" xlink:href="#template"/><use x="4" y="28" xlink:href="#template"/><use x="6" y="28" xlink:href="#template"/><use x="9" y="28" xlink:href="#template"/><use x="11" y="28" xlink:href="#template"/><use x="13" y="28" xlink:href="#template"/><use x="16" y="28" xlink:href="#template"/><use x="17" y="28" xlink:href="#template"/><use x="19" y="28" xlink:href="#template"/><use x="20" y="28" xlink:href="#template"/><use x="23" y="28" xlink:href="#template"/><use x="24" y="28" xlink:href="#template"/><use x="25" y="28" xlink:href="#template"/><use x="26" y="28" xlink:href="#template"/><use x="27" y="28" xlink:href="#template"/><use x="28" y="28" xlink:href="#template"/><use x="30" y="28" xlink:href="#template"/><use x="31" y="28" xlink:href="#template"/><use x="0" y="29" xlink:href="#template"/><use x="2" y="29" xlink:href="#template"/><use x="3" y="29" xlink:href="#template"/><use x="4" y="29" xlink:href="#template"/><use x="6" y="29" xlink:href="#template"/><use x="8" y="29" xlink:href="#template"/><use x="9" y="29" xlink:href="#template"/><use x="10" y="29" xlink:href="#template"/><use x="13" y="29" xlink:href="#template"/><use x="14" y="29" xlink:href="#template"/><use x="15" y="29" xlink:href="#template"/><use x="18" y="29" xlink:href="#template"/><use x="20" y="29" xlink:href="#template"/><use x="23" y="29" xlink:href="#template"/><use x="27" y="29" xlink:href="#template"/><use x="0" y="30" xlink:href="#template"/><use x="2" y="30" xlink:href="#template"/><use x="3" y="30" xlink:href="#template"/><use x="4" y="30" xlink:href="#template"/><use x="6" y="30" xlink:href="#template"/><use x="8" y="30" xlink:href="#template"/><use x="10" y="30" xlink:href="#template"/><use x="11" y="30" xlink:href="#template"/><use x="17" y="30" xlink:href="#template"/><use x="18" y="30" xlink:href="#template"/><use x="21" y="30" xlink:href="#template"/><use x="22" y="30" xlink:href="#template"/><use x="24" y="30" xlink:href="#template"/><use x="25" y="30" xlink:href="#template"/><use x="26" y="30" xlink:href="#template"/><use x="29" y="30" xlink:href="#template"/><use x="30" y="30" xlink:href="#template"/><use x="0" y="31" xlink:href="#template"/><use x="6" y="31" xlink:href="#template"/><use x="13" y="31" xlink:href="#template"/><use x="14" y="31" xlink:href="#template"/><use x="16" y="31" xlink:href="#template"/><use x="18" y="31" xlink:href="#template"/><use x="19" y="31" xlink:href="#template"/><use x="21" y="31" xlink:href="#template"/><use x="22" y="31" xlink:href="#template"/><use x="23" y="31" xlink:href="#template"/><use x="24" y="31" xlink:href="#template"/><use x="25" y="31" xlink:href="#template"/><use x="29" y="31" xlink:href="#template"/><use x="32" y="31" xlink:href="#template"/><use x="0" y="32" xlink:href="#template"/><use x="1" y="32" xlink:href="#template"/><use x="2" y="32" xlink:href="#template"/><use x="3" y="32" xlink:href="#template"/><use x="4" y="32" xlink:href="#template"/><use x="5" y="32" xlink:href="#template"/><use x="6" y="32" xlink:href="#template"/><use x="9" y="32" xlink:href="#template"/><use x="11" y="32" xlink:href="#template"/><use x="12" y="32" xlink:href="#template"/><use x="14" y="32" xlink:href="#template"/><use x="15" y="32" xlink:href="#template"/><use x="22" y="32" xlink:href="#template"/><use x="23" y="32" xlink:href="#template"/><use x="25" y="32" xlink:href="#template"/><use x="26" y="32" xlink:href="#template"/><use x="27" y="32" xlink:href="#template"/><use x="28" y="32" xlink:href="#template"/><use x="29" y="32" xlink:href="#template"/></svg>